PathFileType	3	(X/Y/Z)	C:\Users\koon_\Desktop\
DataRate	CameraRate	NumFrames	NumMarkers	Units	OrigDataRate	OrigDataStartFrame	OrigNumFrames
100.0	100.0	8	27	mm	100.0	496	3966	
Frame#	Time	GM:LFHD			GM:RFHD			GM:LBHD			GM:RBHD			GM:C7			GM:T10			GM:CLAV			GM:STRN			GM:RBAK			GM:LSHO			GM:LUPA			GM:LELB			GM:LFRA			GM:LWRA			GM:LWRB			GM:LFIN			GM:RSHO			GM:RUPA			GM:RELB			GM:RFRA			GM:RWRA			GM:RWRB			GM:RFIN			GM:LASI			GM:RASI			GM:LPSI			GM:RPSI			
		X1	Y1	Z1	X2	Y2	Z2	X3	Y3	Z3	X4	Y4	Z4	X5	Y5	Z5	X6	Y6	Z6	X7	Y7	Z7	X8	Y8	Z8	X9	Y9	Z9	X10	Y10	Z10	X11	Y11	Z11	X12	Y12	Z12	X13	Y13	Z13	X14	Y14	Z14	X15	Y15	Z15	X16	Y16	Z16	X17	Y17	Z17	X18	Y18	Z18	X19	Y19	Z19	X20	Y20	Z20	X21	Y21	Z21	X22	Y22	Z22	X23	Y23	Z23	X24	Y24	Z24	X25	Y25	Z25	X26	Y26	Z26	X27	Y27	Z27	
496	4.95	91.013977	1601.9792	-70.21032	-62.131512	1601.1205	-55.926113	78.707924	1585.5905	-201.76324	-81.766258	1587.6279	-169.25281	-11.079599	1418.7463	-235.54855	-20.93701	1227.6995	-281.03946	22.122751	1358.6741	-83.102989	17.880964	1212.7478	-35.663452	-124.3984	1312.7655	-243.72993	169.9743	1385.0338	-193.25865	232.41835	1277.1155	-196.44545	253.87529	1066.8086	-238.20071	223.82463	961.065	-135.91194	222.69022	894.94812	-106.42722	255.05376	864.91211	-156.93698	231.45836	813.61725	-75.053345	-130.04134	1440.3109	-144.9615	-167.80058	1543.9569	-25.3249	-199.6059	1592.58	65.997925	-143.55101	1661.9579	36.829697	-90.323471	1776.6797	74.959862	-109.03024	1777.4858	134.10655	-96.611694	1858.2084	92.605591	140.80602	901.34943	-81.150833	-149.5311	906.90637	-64.428535	50.850285	952.20367	-285.03564	-84.840546	944.52124	-279.4437
497	4.96	91.747116	1601.7728	-71.137062	-61.301979	1601.11	-56.780739	79.347801	1585.4561	-202.71036	-81.125046	1587.6794	-170.11674	-10.900298	1418.7819	-236.31154	-20.636267	1227.5992	-281.87369	22.349602	1358.4963	-83.956306	18.007797	1212.3572	-36.504505	-123.90057	1312.4961	-244.97449	170.36983	1384.7714	-194.01407	232.73526	1276.7756	-197.24716	254.01497	1066.4789	-238.72601	224.02943	960.90662	-136.30656	222.85384	894.77698	-106.78928	255.27907	864.79095	-157.23906	231.44945	813.49152	-75.343369	-130.38626	1439.516	-145.07509	-166.60667	1539.7257	-21.089516	-196.77753	1584.3297	73.817894	-141.14153	1654.7095	47.111389	-87.397491	1767.7593	89.458656	-105.62745	1765.9913	148.86375	-93.093399	1848.3264	110.24956	140.73438	901.39777	-81.52961	-149.59557	907.00238	-64.933426	50.907372	952.0863	-285.49243	-84.803925	944.42212	-279.97528
498	4.97	92.432907	1601.5282	-71.979698	-60.705589	1601.1017	-57.502319	79.994003	1585.3401	-203.54126	-80.522232	1587.7385	-171.02704	-10.705187	1418.8101	-237.08397	-20.245903	1227.5056	-282.85544	22.68372	1358.3652	-84.732819	18.130772	1211.973	-37.316532	-123.31828	1312.2062	-246.17807	170.7709	1384.4969	-194.83966	233.03697	1276.4417	-197.94215	254.27065	1066.0858	-239.32014	224.2504	960.7666	-136.69931	223.01981	894.66364	-107.06004	255.17351	864.46942	-157.54651	231.47911	813.35004	-75.57988	-130.77173	1438.6633	-145.0522	-165.31721	1533.7631	-13.505122	-194.18187	1575.028	81.558067	-138.97559	1646.5189	57.66531	-84.565422	1757.5022	104.37498	-101.84074	1753.0906	163.79727	-89.783653	1836.9073	128.47647	140.73311	901.48468	-81.795174	-149.65247	907.07068	-65.446198	50.957382	951.96429	-285.93637	-84.704506	944.33289	-280.56421
499	4.98	93.049561	1601.3157	-72.900169	-60.049786	1601.0376	-58.53688	80.598358	1585.2338	-204.42932	-80.322975	1587.9442	-172.53375	-10.495905	1418.8407	-237.8647	-19.915667	1227.2574	-283.68326	22.868931	1358.1639	-85.61216	18.329037	1211.5988	-38.057842	-122.75893	1311.8839	-247.62872	171.1749	1384.1935	-195.64226	233.35298	1276.1292	-198.60361	254.60303	1065.7793	-239.96239	224.42271	960.64117	-137.05797	223.16486	894.46173	-107.3755	255.41669	864.23199	-157.95062	231.50186	813.19836	-75.819107	-131.08415	1437.7473	-145.17094	-164.34557	1527.9281	-7.7172556	-191.73827	1564.8811	89.633949	-136.939	1637.3971	68.487587	-81.37384	1745.9487	119.59151	-97.786331	1738.6204	178.66043	-86.647163	1823.87	146.98546	140.6665	901.50092	-82.087914	-149.7189	907.16327	-65.97818	51.048927	951.84393	-286.35422	-84.586281	944.19836	-281.03592
500	4.99	93.680122	1601.1119	-73.768791	-59.463585	1601.0525	-59.312794	81.195969	1585.1348	-205.41351	-79.463554	1588.1304	-173.11296	-10.306472	1418.8561	-238.73325	-19.516508	1227.0635	-284.52463	22.989746	1357.9604	-86.529259	18.487825	1211.2358	-38.929127	-122.212	1311.6165	-249.10254	171.55569	1383.9467	-196.44873	233.64874	1275.8337	-199.28018	254.7648	1065.4542	-240.30029	224.64687	960.39508	-137.48668	223.32253	894.29974	-107.64288	255.73061	864.08746	-158.33148	231.53082	813.08313	-76.026711	-131.51271	1436.8947	-145.47517	-163.29813	1521.5618	-1.7384194	-189.47194	1553.6029	97.440994	-134.93666	1627.1191	79.469025	-78.499657	1732.9771	135.19035	-94.142166	1722.8359	193.92062	-83.872749	1809.324	166.17604	140.65363	901.49438	-82.45829	-149.89874	907.19855	-66.606476	51.207855	951.70392	-286.81061	-84.485626	944.11475	-281.42743
501	5	94.269669	1600.8743	-74.733337	-58.550117	1600.917	-60.210354	81.743782	1585.0331	-206.31912	-78.771965	1588.2195	-173.99811	-10.073895	1418.865	-239.66638	-19.071873	1226.8481	-285.45834	23.210215	1357.8453	-87.41774	18.908934	1210.9738	-39.159321	-121.56254	1311.3905	-250.65575	171.95685	1383.6876	-197.30075	233.97476	1275.4922	-199.94127	254.9881	1065.1472	-240.74664	224.83562	960.24451	-137.77464	223.43442	894.14832	-108.02861	255.76642	863.62585	-158.45584	231.62906	812.91003	-76.237709	-131.94519	1436.0573	-145.83496	-162.57927	1514.3483	4.5154643	-187.14923	1541.3328	105.2659	-132.66995	1615.6672	90.511124	-75.655052	1718.4857	150.94795	-90.576408	1705.3923	209.10497	-81.06292	1792.9412	185.60533	140.61269	901.51709	-82.677376	-149.98817	907.24243	-67.018059	51.367161	951.60065	-287.2764	-84.331223	943.97516	-282.13681
502	5.01	94.756805	1600.6442	-75.618042	-56.970581	1601.0234	-60.802391	82.317177	1584.9775	-207.20052	-78.21714	1588.2943	-174.95274	-9.7772322	1418.7834	-240.68021	-18.571829	1226.7188	-286.36255	23.37986	1357.7661	-88.304008	18.985296	1210.671	-40.038479	-120.9366	1311.0663	-252.30116	172.32253	1383.4635	-198.13376	234.24252	1275.2255	-200.52887	255.24944	1064.7958	-241.13991	224.97852	960.09241	-138.17239	223.55228	894.01111	-108.36758	255.91437	863.39734	-158.63713	231.74826	812.81659	-76.408516	-132.44734	1435.0732	-146.08775	-161.94228	1506.359	11.000242	-184.82945	1527.8165	112.78416	-130.53229	1602.9524	101.54823	-72.803818	1702.5281	166.78757	-87.109299	1686.2878	224.14902	-78.586334	1774.5961	205.34328	140.54939	901.5058	-82.965836	-150.11623	907.22137	-67.498512	51.538528	951.49768	-287.69833	-84.099289	943.81488	-282.82156
503	5.02	95.21627	1600.4243	-76.524529	-56.586163	1600.92	-61.809464	82.796738	1584.9475	-208.24055	-77.930267	1588.324	-176.18143	-9.4488649	1418.6624	-241.67407	-18.0966	1226.484	-287.14847	23.451565	1357.6555	-89.229218	18.837133	1210.4149	-41.477203	-120.24177	1310.6818	-253.83347	172.72237	1383.2777	-199.00105	234.61855	1275.0015	-201.14197	255.80222	1064.374	-241.83455	225.32664	959.9444	-138.56268	224.44398	894.06659	-108.42428	256.20493	863.24792	-158.94008	231.81488	812.703	-76.610924	-133.13956	1433.9253	-145.63217	-161.1951	1497.573	17.377821	-182.22034	1513.0613	120.18835	-128.34343	1589.1083	112.56457	-70.151337	1684.9398	182.66684	-83.666054	1665.4395	239.1633	-76.043243	1754.3639	225.46178	140.55957	901.53595	-83.149948	-150.31128	907.23712	-68.05777	51.680096	951.42273	-288.16687	-83.876091	943.69531	-283.40891
